<!-- Source: user-provided 11x11 lock-alpha icon; each source pixel is retained 1:1. -->
<svg xmlns="http://www.w3.org/2000/svg" viewBox="0 0 11 11" shape-rendering="crispEdges">
  <g fill="currentColor">
    <rect x="3" y="2" width="5" height="1"/>
    <rect x="4" y="3" width="3" height="1"/>
    <rect x="3" y="4" width="5" height="1"/>
    <rect x="1" y="5" width="3" height="1"/>
    <rect x="7" y="5" width="3" height="1"/>
    <rect x="1" y="6" width="3" height="1"/>
    <rect x="5" y="6" width="1" height="1"/>
    <rect x="7" y="6" width="3" height="1"/>
    <rect x="1" y="7" width="3" height="1"/>
    <rect x="7" y="7" width="3" height="1"/>
    <rect x="1" y="8" width="3" height="1"/>
    <rect x="5" y="8" width="1" height="1"/>
    <rect x="7" y="8" width="3" height="1"/>
    <rect x="1" y="9" width="9" height="1"/>
  </g>
  <g fill="currentColor" fill-opacity="0.4196078431372549">
    <rect x="2" y="4" width="1" height="1"/>
    <rect x="8" y="4" width="1" height="1"/>
    <rect x="4" y="5" width="1" height="1"/>
    <rect x="6" y="5" width="1" height="1"/>
    <rect x="4" y="8" width="1" height="1"/>
  </g>
</svg>
